<svg xmlns="http://www.w3.org/2000/svg" viewBox="0 0 383 60" width="383" height="60">
  <!-- Puzzle piece icon -->
  <g transform="translate(2, 7) scale(1.25)">
    <path d="M 12 2 L 20 2 C 20 2, 20 -2, 24 -2 C 28 -2, 28 2, 28 2  L 38 2 L 38 10 C 38 10, 42 10, 42 14 C 42 18, 38 18, 38 18  L 38 28 L 28 28 C 28 28, 28 32, 24 32 C 20 32, 20 28, 20 28  L 12 28 L 12 18 C 12 18, 8 18, 8 14 C 8 10, 12 10, 12 10 Z" fill="#43B6F3"/>
  </g>
  <!-- Text -->
  <g transform="translate(60, 45)">
    <path transform="translate(0.0, 0) scale(0.042000, -0.042000)" d="M264 693Q282 660 305.5 611.5Q329 563 354.5 506.5Q380 450 405.0 391.0Q430 332 452 280Q474 332 499.0 391.0Q524 450 549.5 506.5Q575 563 598.5 611.5Q622 660 640 693H782Q792 624 800.5 538.5Q809 453 815.5 360.5Q822 268 827.5 175.0Q833 82 837 0H685Q682 101 677.0 220.0Q672 339 662 460Q644 418 622.0 367.0Q600 316 578.5 265.0Q557 214 537.0 167.5Q517 121 503 88H394Q380 121 360.0 167.5Q340 214 318.5 265.0Q297 316 275.0 367.0Q253 418 235 460Q225 339 220.0 220.0Q215 101 212 0H60Q64 82 69.5 175.0Q75 268 81.5 360.5Q88 453 96.5 538.5Q105 624 115 693Z" fill="#345C00"/>
    <path transform="translate(37.7, 0) scale(0.042000, -0.042000)" d="M45 259Q45 329 66.5 381.5Q88 434 123.0 469.0Q158 504 203.5 522.0Q249 540 297 540Q409 540 474.0 471.5Q539 403 539 270Q539 257 538.0 241.5Q537 226 536 214H198Q203 168 241.0 141.0Q279 114 343 114Q384 114 423.5 121.5Q463 129 488 140L508 19Q496 13 476.0 7.0Q456 1 431.5 -3.5Q407 -8 379.0 -11.0Q351 -14 323 -14Q252 -14 199.5 7.0Q147 28 112.5 64.5Q78 101 61.5 151.0Q45 201 45 259ZM395 316Q394 335 388.5 353.0Q383 371 371.5 385.0Q360 399 342.5 408.0Q325 417 299 417Q274 417 256.0 408.5Q238 400 226.0 386.0Q214 372 207.5 353.5Q201 335 198 316Z" fill="#345C00"/>
    <path transform="translate(62.2, 0) scale(0.042000, -0.042000)" d="M197 267Q197 198 228.0 156.0Q259 114 320 114Q340 114 357.0 115.5Q374 117 385 119V390Q371 399 348.5 405.0Q326 411 303 411Q197 411 197 267ZM534 17Q514 11 488.0 5.5Q462 0 433.5 -4.0Q405 -8 375.5 -10.5Q346 -13 319 -13Q254 -13 203.0 6.0Q152 25 117.0 60.5Q82 96 63.5 146.5Q45 197 45 260Q45 324 61.0 375.5Q77 427 107.0 463.0Q137 499 180.5 518.0Q224 537 280 537Q311 537 335.5 531.0Q360 525 385 514V752L534 776Z" fill="#345C00"/>
    <path transform="translate(87.6, 0) scale(0.042000, -0.042000)" d="M543 0Q529 41 514.0 81.0Q499 121 485 163H193Q179 121 164.5 80.5Q150 40 136 0H5Q44 111 79.0 205.0Q114 299 147.5 383.0Q181 467 214.0 543.0Q247 619 282 693H401Q436 619 469.0 543.0Q502 467 535.5 383.0Q569 299 604.5 205.0Q640 111 679 0ZM339 559Q316 506 286.5 430.0Q257 354 225 265H453Q421 354 391.0 431.0Q361 508 339 559Z" fill="#345C00"/>
    <path transform="translate(116.3, 0) scale(0.042000, -0.042000)" d="M208 87Q256 87 278.0 98.5Q300 110 300 138Q300 164 276.5 181.0Q253 198 199 218Q166 230 138.5 243.5Q111 257 91.0 275.0Q71 293 59.5 318.5Q48 344 48 381Q48 453 101.0 494.5Q154 536 245 536Q291 536 333.0 527.5Q375 519 396 511L374 413Q354 422 323.0 429.5Q292 437 251 437Q214 437 191.0 424.5Q168 412 168 386Q168 373 172.5 363.0Q177 353 188.0 344.5Q199 336 217.0 327.5Q235 319 261 310Q304 294 334.0 278.5Q364 263 383.5 243.5Q403 224 412.0 199.0Q421 174 421 139Q421 64 365.5 25.5Q310 -13 207 -13Q138 -13 96.0 -1.5Q54 10 37 17L58 118Q85 107 122.5 97.0Q160 87 208 87Z" fill="#345C00"/>
    <path transform="translate(135.5, 0) scale(0.042000, -0.042000)" d="M208 87Q256 87 278.0 98.5Q300 110 300 138Q300 164 276.5 181.0Q253 198 199 218Q166 230 138.5 243.5Q111 257 91.0 275.0Q71 293 59.5 318.5Q48 344 48 381Q48 453 101.0 494.5Q154 536 245 536Q291 536 333.0 527.5Q375 519 396 511L374 413Q354 422 323.0 429.5Q292 437 251 437Q214 437 191.0 424.5Q168 412 168 386Q168 373 172.5 363.0Q177 353 188.0 344.5Q199 336 217.0 327.5Q235 319 261 310Q304 294 334.0 278.5Q364 263 383.5 243.5Q403 224 412.0 199.0Q421 174 421 139Q421 64 365.5 25.5Q310 -13 207 -13Q138 -13 96.0 -1.5Q54 10 37 17L58 118Q85 107 122.5 97.0Q160 87 208 87Z" fill="#345C00"/>
    <path transform="translate(154.7, 0) scale(0.042000, -0.042000)" d="M48 259Q48 328 68.5 380.0Q89 432 123.0 466.5Q157 501 201.0 518.5Q245 536 291 536Q399 536 459.5 469.0Q520 402 520 269Q520 259 519.5 246.5Q519 234 518 224H173Q178 161 217.5 126.5Q257 92 332 92Q376 92 412.5 100.0Q449 108 470 117L486 18Q476 13 458.5 7.5Q441 2 418.5 -2.5Q396 -7 370.0 -10.0Q344 -13 317 -13Q248 -13 197.0 7.5Q146 28 113.0 64.5Q80 101 64.0 150.5Q48 200 48 259ZM399 313Q399 338 392.0 360.5Q385 383 371.5 399.5Q358 416 338.5 425.5Q319 435 292 435Q264 435 243.0 424.5Q222 414 207.5 397.0Q193 380 185.0 358.0Q177 336 174 313Z" fill="#345C00"/>
    <path transform="translate(178.7, 0) scale(0.042000, -0.042000)" d="M208 87Q256 87 278.0 98.5Q300 110 300 138Q300 164 276.5 181.0Q253 198 199 218Q166 230 138.5 243.5Q111 257 91.0 275.0Q71 293 59.5 318.5Q48 344 48 381Q48 453 101.0 494.5Q154 536 245 536Q291 536 333.0 527.5Q375 519 396 511L374 413Q354 422 323.0 429.5Q292 437 251 437Q214 437 191.0 424.5Q168 412 168 386Q168 373 172.5 363.0Q177 353 188.0 344.5Q199 336 217.0 327.5Q235 319 261 310Q304 294 334.0 278.5Q364 263 383.5 243.5Q403 224 412.0 199.0Q421 174 421 139Q421 64 365.5 25.5Q310 -13 207 -13Q138 -13 96.0 -1.5Q54 10 37 17L58 118Q85 107 122.5 97.0Q160 87 208 87Z" fill="#345C00"/>
    <path transform="translate(197.9, 0) scale(0.042000, -0.042000)" d="M208 87Q256 87 278.0 98.5Q300 110 300 138Q300 164 276.5 181.0Q253 198 199 218Q166 230 138.5 243.5Q111 257 91.0 275.0Q71 293 59.5 318.5Q48 344 48 381Q48 453 101.0 494.5Q154 536 245 536Q291 536 333.0 527.5Q375 519 396 511L374 413Q354 422 323.0 429.5Q292 437 251 437Q214 437 191.0 424.5Q168 412 168 386Q168 373 172.5 363.0Q177 353 188.0 344.5Q199 336 217.0 327.5Q235 319 261 310Q304 294 334.0 278.5Q364 263 383.5 243.5Q403 224 412.0 199.0Q421 174 421 139Q421 64 365.5 25.5Q310 -13 207 -13Q138 -13 96.0 -1.5Q54 10 37 17L58 118Q85 107 122.5 97.0Q160 87 208 87Z" fill="#345C00"/>
    <path transform="translate(217.1, 0) scale(0.042000, -0.042000)" d="M375 275Q375 357 354.5 393.5Q334 430 278 430Q258 430 234.0 427.0Q210 424 198 422V0H77V506Q112 516 168.5 525.0Q225 534 288 534Q342 534 376.5 520.0Q411 506 434 483Q445 491 462.0 500.0Q479 509 500.0 516.5Q521 524 544.5 529.0Q568 534 592 534Q653 534 692.5 516.5Q732 499 754.5 467.5Q777 436 785.5 391.5Q794 347 794 294V0H673V275Q673 357 653.0 393.5Q633 430 576 430Q547 430 521.0 420.5Q495 411 482 402Q490 377 493.0 349.0Q496 321 496 289V0H375Z" fill="#345C00"/>
    <path transform="translate(253.4, 0) scale(0.042000, -0.042000)" d="M48 259Q48 328 68.5 380.0Q89 432 123.0 466.5Q157 501 201.0 518.5Q245 536 291 536Q399 536 459.5 469.0Q520 402 520 269Q520 259 519.5 246.5Q519 234 518 224H173Q178 161 217.5 126.5Q257 92 332 92Q376 92 412.5 100.0Q449 108 470 117L486 18Q476 13 458.5 7.5Q441 2 418.5 -2.5Q396 -7 370.0 -10.0Q344 -13 317 -13Q248 -13 197.0 7.5Q146 28 113.0 64.5Q80 101 64.0 150.5Q48 200 48 259ZM399 313Q399 338 392.0 360.5Q385 383 371.5 399.5Q358 416 338.5 425.5Q319 435 292 435Q264 435 243.0 424.5Q222 414 207.5 397.0Q193 380 185.0 358.0Q177 336 174 313Z" fill="#345C00"/>
    <path transform="translate(277.4, 0) scale(0.042000, -0.042000)" d="M77 506Q112 516 168.0 525.0Q224 534 292 534Q356 534 399.0 516.5Q442 499 467.5 467.5Q493 436 503.5 391.5Q514 347 514 294V0H393V275Q393 317 387.5 346.5Q382 376 369.5 394.5Q357 413 335.5 421.5Q314 430 283 430Q260 430 235.0 427.0Q210 424 198 422V0H77Z" fill="#345C00"/>
    <path transform="translate(301.9, 0) scale(0.042000, -0.042000)" d="M71 661 192 681V523H378V422H192V209Q192 146 212.0 119.0Q232 92 280 92Q313 92 338.5 99.0Q364 106 379 112L399 16Q378 7 344.0 -2.5Q310 -12 264 -12Q208 -12 170.5 3.0Q133 18 111.0 46.5Q89 75 80.0 115.5Q71 156 71 208Z" fill="#345C00"/>
  </g>
</svg>