<?xml version="1.0" standalone="no"?>
<!DOCTYPE svg PUBLIC "-//W3C//DTD SVG 20010904//EN"
 "http://www.w3.org/TR/2001/REC-SVG-20010904/DTD/svg10.dtd">
<svg version="1.0" xmlns="http://www.w3.org/2000/svg"
 width="800.000000pt" height="349.000000pt" viewBox="0 0 800.000000 349.000000"
 preserveAspectRatio="xMidYMid meet">
<metadata>
Created by potrace 1.16, written by Peter Selinger 2001-2019
</metadata>
<g transform="translate(0.000000,349.000000) scale(0.100000,-0.100000)"
fill="#000000" stroke="none">
<path d="M2109 2610 c-27 -27 -30 -35 -28 -87 1 -32 7 -65 12 -75 17 -26 -16
-68 -54 -68 -54 0 -96 -25 -120 -72 -12 -24 -34 -62 -50 -84 -50 -73 -79 -179
-79 -290 0 -90 -2 -98 -25 -120 -32 -29 -31 -64 1 -88 25 -18 26 -18 49 4 20
19 22 26 13 46 -9 19 -8 28 4 41 17 20 58 173 58 216 0 19 13 40 45 71 25 24
47 40 49 37 2 -3 9 -32 17 -64 7 -32 16 -60 21 -63 12 -8 60 30 221 175 113
100 136 126 125 136 -7 7 -43 25 -80 41 -65 27 -83 46 -54 57 18 7 33 72 31
135 -2 63 -21 81 -83 82 -35 0 -49 -6 -73 -30z"/>
<path d="M2602 2524 c-15 -10 -22 -25 -22 -47 0 -21 -11 -46 -33 -73 -17 -22
-47 -73 -66 -111 l-34 -71 -21 25 -22 25 -206 -185 c-154 -140 -209 -196 -221
-225 -18 -45 -41 -152 -58 -272 -6 -47 -22 -112 -35 -145 -12 -33 -35 -118
-51 -190 -19 -87 -29 -119 -31 -98 -4 39 8 37 -294 59 l-237 17 -94 -84 c-53
-46 -94 -88 -93 -93 1 -6 84 -42 184 -81 l182 -72 -142 -6 c-79 -4 -200 -7
-269 -7 -131 0 -139 -2 -139 -44 0 -19 1446 -30 2135 -17 524 11 641 16 613
32 -35 19 -810 42 -913 26 -27 -4 245 81 605 190 360 108 657 198 659 200 2 2
2 5 0 7 -2 1 -348 -23 -769 -55 -421 -33 -783 -58 -805 -57 l-40 3 -8 120 c-4
66 -9 185 -11 265 -2 115 -8 169 -30 265 -15 66 -31 126 -35 133 -4 7 2 55 13
108 l19 95 36 -34 c44 -41 81 -67 98 -67 29 0 84 125 110 250 13 64 21 81 55
116 l39 41 -17 36 c-20 42 -22 43 -52 21z m-418 -917 c16 -39 36 -88 44 -107
8 -19 17 -60 19 -90 2 -30 15 -99 29 -152 27 -107 27 -111 17 -105 -5 3 -66
10 -138 16 -71 6 -151 14 -177 17 l-46 6 24 52 c13 28 29 88 35 131 9 57 19
88 35 108 13 15 44 66 70 112 25 47 49 85 52 85 4 0 20 -33 36 -73z"/>
<path d="M7097 2079 c-104 -11 -143 -46 -153 -135 -8 -69 12 -123 55 -148 19
-11 90 -30 159 -42 125 -23 162 -40 162 -74 0 -37 -33 -51 -124 -51 -98 0
-124 10 -133 52 -5 28 -7 29 -64 29 l-59 0 0 -41 c0 -58 25 -104 68 -126 55
-27 310 -27 366 1 52 26 70 70 63 159 -7 106 -35 127 -212 157 -139 24 -157
32 -153 68 4 36 39 52 113 52 74 0 109 -16 113 -53 4 -29 15 -32 86 -20 l38 6
-4 49 c-6 58 -35 94 -87 107 -56 14 -160 18 -234 10z"/>
<path d="M2595 1805 l0 -277 205 4 c228 4 255 10 286 70 24 46 15 140 -16 173
-13 14 -29 25 -37 25 -20 0 -16 7 19 38 26 24 32 38 36 84 3 39 -1 64 -13 87
-28 55 -65 64 -285 69 l-195 4 0 -277z m353 153 c7 -7 12 -26 12 -43 0 -50
-13 -55 -132 -55 l-108 0 0 55 0 55 108 0 c71 0 112 -4 120 -12z m6 -217 c18
-15 21 -68 6 -91 -7 -11 -36 -16 -125 -18 l-115 -4 0 67 0 68 109 -5 c69 -3
115 -9 125 -17z"/>
<path d="M3315 2058 c-4 -13 -47 -134 -96 -270 -49 -135 -89 -249 -89 -253 0
-3 30 -5 66 -3 l67 3 14 48 14 48 121 -3 122 -3 15 -47 15 -48 69 0 c51 0 68
3 64 13 -2 6 -37 104 -76 217 -39 113 -81 231 -93 263 l-20 57 -94 0 c-87 0
-93 -1 -99 -22z m143 -201 c18 -56 32 -106 32 -110 0 -4 -36 -7 -81 -7 -68 0
-80 2 -75 15 3 8 17 54 32 102 31 102 31 103 48 103 8 0 26 -42 44 -103z"/>
<path d="M3760 1806 l0 -276 60 0 60 0 0 90 0 90 73 0 74 0 49 -90 49 -90 73
0 74 0 -20 33 c-11 17 -37 61 -57 97 -34 61 -35 65 -18 77 66 47 78 78 71 192
-7 126 -40 143 -300 149 l-188 4 0 -276z m324 154 c36 -13 52 -51 40 -92 -12
-43 -52 -57 -161 -57 l-83 -1 0 80 0 80 89 0 c49 0 101 -4 115 -10z"/>
<path d="M4340 1805 l0 -275 65 0 65 0 -2 273 -3 272 -62 3 -63 3 0 -276z"/>
<path d="M4580 1805 l0 -275 55 0 55 0 0 213 1 212 40 -85 c22 -47 67 -142
101 -212 l61 -128 94 0 93 0 0 275 0 275 -61 0 -62 0 6 -217 6 -218 -20 45
c-11 25 -57 123 -101 218 l-81 172 -93 0 -94 0 0 -275z"/>
<path d="M5150 2020 l0 -60 100 0 100 0 0 -215 0 -215 63 0 62 0 -3 215 -3
215 106 0 105 0 0 60 0 60 -265 0 -265 0 0 -60z"/>
<path d="M5740 1805 l0 -275 65 0 65 0 0 115 0 115 125 0 125 0 0 -115 0 -115
63 0 62 0 0 275 0 275 -62 0 -63 0 0 -105 0 -105 -125 0 -125 0 0 105 0 105
-65 0 -65 0 0 -275z"/>
<path d="M6350 1887 c0 -282 20 -330 150 -358 75 -16 218 -7 266 17 82 41 93
83 94 347 l0 187 -60 0 -60 0 0 -157 c-1 -264 -12 -287 -136 -287 -71 0 -78 1
-100 27 -24 28 -24 32 -24 223 l0 194 -65 0 -65 0 0 -193z"/>
</g>
</svg>
