<?xml version="1.0" standalone="no"?>
<!DOCTYPE svg PUBLIC "-//W3C//DTD SVG 20010904//EN"
 "http://www.w3.org/TR/2001/REC-SVG-20010904/DTD/svg10.dtd">
<svg version="1.0" xmlns="http://www.w3.org/2000/svg"
 width="300.000000pt" height="127.000000pt" viewBox="0 0 300.000000 127.000000"
 preserveAspectRatio="xMidYMid meet">
<metadata>
Created by potrace 1.16, written by Peter Selinger 2001-2019
</metadata>
<g transform="translate(0.000000,127.000000) scale(0.100000,-0.100000)"
fill="#000000" stroke="none">
<path d="M0 1237 c0 -28 7 -37 64 -75 122 -83 261 -115 405 -93 41 6 160 41
265 76 208 69 252 81 364 95 129 17 278 -15 404 -86 104 -59 172 -114 141
-114 -4 0 -41 17 -83 39 -115 59 -187 74 -322 69 -108 -4 -122 -8 -323 -76
-279 -94 -317 -103 -441 -103 -87 0 -118 4 -185 26 -74 25 -169 81 -256 151
l-33 27 0 -587 0 -586 1500 0 1500 0 0 635 0 635 -1030 0 c-632 0 -1037 -4
-1048 -10 -9 -5 -55 -20 -102 -34 -47 -13 -130 -40 -186 -59 -137 -48 -207
-60 -312 -55 -70 3 -100 10 -144 31 -55 27 -86 52 -76 62 3 3 34 -2 69 -11 91
-23 235 -15 359 21 52 15 118 33 145 40 43 11 1 13 -312 14 l-363 1 0 -33z"/>
</g>
</svg>
