<?xml version="1.0" standalone="no"?>
<!DOCTYPE svg PUBLIC "-//W3C//DTD SVG 20010904//EN"
 "http://www.w3.org/TR/2001/REC-SVG-20010904/DTD/svg10.dtd">
<svg version="1.0" xmlns="http://www.w3.org/2000/svg"
 width="1450.000000pt" height="346.000000pt" viewBox="0 0 1450.000000 346.000000"
 preserveAspectRatio="xMidYMid meet">
<metadata>
Created by potrace 1.16, written by Peter Selinger 2001-2019
</metadata>
<g transform="translate(0.000000,346.000000) scale(0.100000,-0.100000)"
fill="#000000" stroke="none">
<path d="M0 3428 c0 -32 0 -32 15 -11 9 13 23 27 33 32 14 9 11 10 -15 11 -31
0 -33 -2 -33 -32z"/>
<path d="M737 3440 c18 -10 39 -29 47 -42 8 -13 132 -437 275 -942 144 -506
265 -924 271 -930 7 -7 13 -7 21 1 5 5 120 399 255 874 134 475 253 893 264
929 18 63 53 109 90 123 8 3 -271 6 -620 6 -634 1 -635 1 -603 -19z"/>
<path d="M2615 3440 c17 -11 38 -34 48 -52 16 -31 17 -129 17 -1649 l0 -1616
-23 -34 c-39 -59 -73 -69 -240 -69 -166 0 -194 8 -227 63 -19 31 -20 59 -20
1162 0 628 -4 1136 -9 1144 -11 17 20 124 -331 -1159 -160 -586 -295 -1078
-302 -1093 -30 -77 -95 -117 -188 -117 -73 0 -114 16 -158 62 -32 34 -46 83
-344 1177 -171 627 -315 1141 -319 1141 -5 0 -9 -512 -9 -1137 0 -1118 0
-1139 -20 -1171 -39 -63 -67 -72 -235 -72 -167 0 -198 9 -235 65 l-20 30 0
-57 0 -58 7250 0 7250 0 0 31 0 32 -26 -27 -27 -26 -194 0 c-217 0 -244 6
-286 62 -26 34 -64 154 -292 928 -92 309 -112 360 -158 394 -27 20 -41 21
-222 21 -181 0 -195 -1 -222 -21 -54 -40 -53 -24 -53 -672 0 -644 0 -643 -50
-687 -20 -18 -39 -20 -210 -23 -213 -4 -235 2 -264 62 -15 31 -16 175 -16
1656 0 1799 -5 1669 64 1711 31 19 28 19 -296 19 l-328 0 0 -1720 0 -1720
-275 0 -275 0 0 1720 0 1720 -232 0 c-163 -1 -228 -4 -215 -11 23 -13 47 -62
47 -94 0 -48 -701 -3229 -718 -3259 -9 -16 -30 -38 -45 -50 -27 -20 -42 -21
-273 -24 -222 -3 -248 -1 -287 16 -32 14 -48 30 -65 63 -26 51 -772 3201 -772
3260 0 26 8 47 26 68 l26 31 -231 0 -231 0 0 -1720 0 -1720 -270 0 -270 0 0
1720 0 1720 -677 -1 c-619 -1 -671 -2 -599 -15 411 -74 634 -309 714 -752 15
-87 17 -184 17 -947 0 -782 -1 -858 -18 -955 -77 -433 -284 -658 -687 -747
-63 -13 -163 -17 -617 -20 -612 -5 -588 -8 -624 70 -18 41 -19 92 -19 1637 0
1053 4 1607 10 1632 6 20 26 50 46 67 l35 31 -310 0 -309 0 34 -34 34 -34 0
-175 c0 -174 0 -176 -26 -206 -14 -17 -42 -35 -62 -41 -23 -6 -215 -10 -499
-10 l-461 0 -31 -26 c-17 -14 -35 -42 -41 -62 -6 -22 -10 -173 -10 -367 0
-310 1 -332 20 -362 42 -69 28 -67 500 -73 319 -4 431 -8 447 -18 47 -27 55
-60 51 -237 l-3 -164 -29 -30 c-17 -17 -46 -36 -65 -41 -21 -6 -203 -10 -435
-10 l-398 0 -39 -39 -39 -39 0 -441 c0 -376 2 -446 15 -471 31 -60 29 -60 538
-60 l464 0 33 -22 c69 -47 75 -64 78 -226 3 -165 -5 -192 -70 -232 -32 -19
-52 -20 -769 -20 l-736 0 -34 23 c-19 12 -42 38 -51 57 -17 33 -18 132 -18
1638 0 1770 -5 1629 65 1691 l36 31 -368 0 -368 0 30 -20z"/>
<path d="M9276 3446 c40 -17 79 -69 93 -121 11 -45 531 -2353 531 -2360 0 -3
9 -5 19 -5 16 0 22 11 30 53 6 28 116 568 244 1200 180 882 238 1154 254 1175
11 15 35 37 53 50 l33 22 -644 0 c-551 -1 -640 -3 -613 -14z"/>
<path d="M13765 3444 c425 -75 677 -353 724 -799 6 -55 9 62 10 368 l1 447
-407 -1 c-384 -1 -403 -2 -328 -15z"/>
<path d="M13219 2961 c-107 -5 -130 -9 -149 -26 -50 -45 -50 -46 -50 -493 l0
-419 23 -34 c38 -57 47 -59 329 -59 303 0 334 7 417 90 88 88 129 203 138 390
13 269 -78 468 -244 530 -66 25 -238 33 -464 21z"/>
<path d="M5949 2945 c-62 -34 -59 28 -59 -1212 1 -898 3 -1133 14 -1151 7 -13
26 -32 42 -43 26 -17 48 -19 219 -19 264 0 351 21 446 107 73 66 117 166 145
328 12 71 17 205 21 625 6 604 -5 895 -37 1028 -48 197 -133 294 -297 337 -80
21 -456 21 -494 0z"/>
<path d="M14490 2326 c0 -24 -7 -81 -15 -127 -45 -240 -142 -413 -306 -544
-95 -76 -112 -98 -110 -143 0 -21 100 -334 220 -697 l220 -660 0 1108 c1 609
-1 1107 -4 1107 -3 0 -5 -20 -5 -44z"/>
</g>
</svg>
